<?xml version="1.0" encoding="UTF-8" standalone="no"?>
<!DOCTYPE svg PUBLIC "-//W3C//DTD SVG 1.1//EN" "http://www.w3.org/Graphics/SVG/1.1/DTD/svg11.dtd">
<svg xmlns="http://www.w3.org/2000/svg" version="1.1" xmlns:xl="http://www.w3.org/1999/xlink" xmlns:dc="http://purl.org/dc/elements/1.1/" viewBox="-1 0 802 220" width="802" height="220">
  <defs>
    <marker orient="auto" overflow="visible" markerUnits="strokeWidth" id="FilledArrow_Marker" stroke-linejoin="miter" stroke-miterlimit="10" viewBox="-1 -3 7 6" markerWidth="7" markerHeight="6" color="black">
      <g>
        <path d="M 4.8 0 L 0 -1.8 L 0 1.8 Z" fill="currentColor" stroke="currentColor" stroke-width="1"/>
      </g>
    </marker>
  </defs>
  <g id="buffer" stroke-dasharray="none" stroke="none" stroke-opacity="1" fill="none" fill-opacity="1">
    <title>buffer</title>
    <g id="buffer_Layer_1">
      <title>Layer 1</title>
      <g id="Graphic_2">
        <path d="M 10 80 L 790 80 C 795.52285 80 800 84.47715 800 90 L 800 130 C 800 135.52285 795.52285 140 790 140 L 10 140 C 4.4771525 140 67635375e-23 135.52285 0 130 L 17763568e-22 90 C 24527106e-22 84.47715 4.4771525 80 10 80 Z" fill="white"/>
        <path d="M 10 80 L 790 80 C 795.52285 80 800 84.47715 800 90 L 800 130 C 800 135.52285 795.52285 140 790 140 L 10 140 C 4.4771525 140 67635375e-23 135.52285 0 130 L 17763568e-22 90 C 24527106e-22 84.47715 4.4771525 80 10 80 Z" stroke="black" stroke-linecap="round" stroke-linejoin="round" stroke-width="2"/>
        <text transform="translate(5 101)" fill="black">
          <tspan font-family="Andale Mono" font-size="16" fill="black" x="351.79297" y="15" xml:space="preserve">buffer(2)</tspan>
        </text>
      </g>
      <g id="Graphic_26"/>
      <g id="Line_25">
        <line x1="20" y1="180" x2="767.1" y2="180" marker-end="url(#FilledArrow_Marker)" stroke="black" stroke-linecap="round" stroke-linejoin="round" stroke-width="2"/>
      </g>
      <g id="Line_24">
        <line x1="620" y1="165" x2="620" y2="195" stroke="black" stroke-linecap="round" stroke-linejoin="round" stroke-width="2"/>
      </g>
      <g id="Graphic_36"/>
      <g id="Line_35">
        <line x1="19.5" y1="40" x2="766.6" y2="40" marker-end="url(#FilledArrow_Marker)" stroke="black" stroke-linecap="round" stroke-linejoin="round" stroke-width="2"/>
      </g>
      <g id="Line_34">
        <line x1="620" y1="25" x2="620" y2="55" stroke="black" stroke-linecap="round" stroke-linejoin="round" stroke-width="2"/>
      </g>
      <g id="Graphic_33">
        <circle cx="80" cy="40" r="20.0000319580379" fill="#80ff80"/>
        <circle cx="80" cy="40" r="20.0000319580379" stroke="black" stroke-linecap="round" stroke-linejoin="round" stroke-width="2"/>
        <text transform="translate(76.10693 31.770996)" fill="black">
          <tspan font-family="Arial" font-weight="bold" font-size="14" fill="black" x="0" y="13" xml:space="preserve">1</tspan>
        </text>
      </g>
      <g id="Graphic_30">
        <circle cx="183" cy="40" r="20.0000319580379" fill="#80ff80"/>
        <circle cx="183" cy="40" r="20.0000319580379" stroke="black" stroke-linecap="round" stroke-linejoin="round" stroke-width="2"/>
        <text transform="translate(179.10693 31.770996)" fill="black">
          <tspan font-family="Arial" font-weight="bold" font-size="14" fill="black" x="0" y="13" xml:space="preserve">5</tspan>
        </text>
      </g>
      <g id="Graphic_28">
        <circle cx="580" cy="40" r="20.0000319580379" fill="#80ff80"/>
        <circle cx="580" cy="40" r="20.0000319580379" stroke="black" stroke-linecap="round" stroke-linejoin="round" stroke-width="2"/>
        <text transform="translate(576.1069 31.770996)" fill="black">
          <tspan font-family="Arial" font-weight="bold" font-size="14" fill="black" x="0" y="13" xml:space="preserve">4</tspan>
        </text>
      </g>
      <g id="Graphic_37">
        <rect x="163" y="150" width="40" height="60" fill="#80ff80"/>
        <rect x="163" y="150" width="40" height="60" stroke="black" stroke-linecap="round" stroke-linejoin="round" stroke-width="2"/>
        <text transform="translate(179.10693 163.542)" fill="black">
          <tspan font-family="Arial" font-weight="bold" font-size="14" fill="black" x="0" y="13" xml:space="preserve">1</tspan>
          <tspan font-family="Arial" font-weight="bold" font-size="14" fill="black" x="0" y="29.458008" xml:space="preserve">5</tspan>
        </text>
      </g>
      <g id="Graphic_38">
        <circle cx="273" cy="40" r="20.0000319580379" fill="#80ff80"/>
        <circle cx="273" cy="40" r="20.0000319580379" stroke="black" stroke-linecap="round" stroke-linejoin="round" stroke-width="2"/>
        <text transform="translate(269.10693 31.770996)" fill="black">
          <tspan font-family="Arial" font-weight="bold" font-size="14" fill="black" x="0" y="13" xml:space="preserve">7</tspan>
        </text>
      </g>
      <g id="Graphic_39">
        <circle cx="399.5" cy="40" r="20.0000319580379" fill="#80ff80"/>
        <circle cx="399.5" cy="40" r="20.0000319580379" stroke="black" stroke-linecap="round" stroke-linejoin="round" stroke-width="2"/>
        <text transform="translate(395.60693 31.770996)" fill="black">
          <tspan font-family="Arial" font-weight="bold" font-size="14" fill="black" x="0" y="13" xml:space="preserve">9</tspan>
        </text>
      </g>
      <g id="Graphic_40">
        <rect x="379.5" y="150" width="40" height="60" fill="#80ff80"/>
        <rect x="379.5" y="150" width="40" height="60" stroke="black" stroke-linecap="round" stroke-linejoin="round" stroke-width="2"/>
        <text transform="translate(395.60693 163.542)" fill="black">
          <tspan font-family="Arial" font-weight="bold" font-size="14" fill="black" x="0" y="13" xml:space="preserve">7</tspan>
          <tspan font-family="Arial" font-weight="bold" font-size="14" fill="black" x="0" y="29.458008" xml:space="preserve">9</tspan>
        </text>
      </g>
      <g id="Graphic_41">
        <rect x="560" y="150" width="40" height="60" fill="#80ff80"/>
        <rect x="560" y="150" width="40" height="60" stroke="black" stroke-linecap="round" stroke-linejoin="round" stroke-width="2"/>
        <text transform="translate(576.1069 171.771)" fill="black">
          <tspan font-family="Arial" font-weight="bold" font-size="14" fill="black" x="0" y="13" xml:space="preserve">4</tspan>
        </text>
      </g>
    </g>
  </g>
</svg>
