<?xml version="1.0" encoding="UTF-8" standalone="no"?>
<!DOCTYPE svg PUBLIC "-//W3C//DTD SVG 1.1//EN" "http://www.w3.org/Graphics/SVG/1.1/DTD/svg11.dtd">
<svg xmlns:xl="http://www.w3.org/1999/xlink" xmlns:dc="http://purl.org/dc/elements/1.1/" version="1.1" xmlns="http://www.w3.org/2000/svg" viewBox="-1 -80 802 300" width="802" height="300">
  <defs>
    <marker orient="auto" overflow="visible" markerUnits="strokeWidth" id="FilledArrow_Marker" stroke-linejoin="miter" stroke-miterlimit="10" viewBox="-1 -3 7 6" markerWidth="7" markerHeight="6" color="black">
      <g>
        <path d="M 4.8 0 L 0 -1.8 L 0 1.8 Z" fill="currentColor" stroke="currentColor" stroke-width="1"/>
      </g>
    </marker>
  </defs>
  <g id="concat" fill-opacity="1" fill="none" stroke-opacity="1" stroke="none" stroke-dasharray="none">
    <title>concat</title>
    <g id="concat_Layer_1">
      <title>Layer 1</title>
      <g id="Graphic_2">
        <path d="M 10 80 L 790 80 C 795.52285 80 800 84.47715 800 90 L 800 130 C 800 135.52285 795.52285 140 790 140 L 10 140 C 4.4771525 140 67635375e-23 135.52285 0 130 L 17763568e-22 90 C 24527106e-22 84.47715 4.4771525 80 10 80 Z" fill="white"/>
        <path d="M 10 80 L 790 80 C 795.52285 80 800 84.47715 800 90 L 800 130 C 800 135.52285 795.52285 140 790 140 L 10 140 C 4.4771525 140 67635375e-23 135.52285 0 130 L 17763568e-22 90 C 24527106e-22 84.47715 4.4771525 80 10 80 Z" stroke="black" stroke-linecap="round" stroke-linejoin="round" stroke-width="2"/>
        <text transform="translate(5 101)" fill="black">
          <tspan font-family="Andale Mono" font-size="16" fill="black" x="356.59375" y="15">concat()</tspan>
        </text>
      </g>
      <g id="Graphic_3"/>
      <g id="Line_4">
        <line x1="20" y1="40" x2="767.1" y2="40" marker-end="url(#FilledArrow_Marker)" stroke="black" stroke-linecap="round" stroke-linejoin="round" stroke-width="2"/>
      </g>
      <g id="Line_5">
        <line x1="726.5" y1="25" x2="726.5" y2="55" stroke="black" stroke-linecap="round" stroke-linejoin="round" stroke-width="2"/>
      </g>
      <g id="Graphic_7">
        <circle cx="173.5" cy="40" r="20.0000319580379" fill="#ff80ff"/>
        <circle cx="173.5" cy="40" r="20.0000319580379" stroke="black" stroke-linecap="round" stroke-linejoin="round" stroke-width="2"/>
        <text transform="translate(169.60693 31.770996)" fill="black">
          <tspan font-family="Arial" font-size="14" fill="black" x="0" y="13">2</tspan>
        </text>
      </g>
      <g id="Graphic_8">
        <circle cx="384" cy="40" r="20.0000319580379" fill="#ff80ff"/>
        <circle cx="384" cy="40" r="20.0000319580379" stroke="black" stroke-linecap="round" stroke-linejoin="round" stroke-width="2"/>
        <text transform="translate(380.10693 31.770996)" fill="black">
          <tspan font-family="Arial" font-size="14" fill="black" x="0" y="13">7</tspan>
        </text>
      </g>
      <g id="Graphic_10">
        <circle cx="684.5" cy="40" r="20.0000319580379" fill="#ff80ff"/>
        <circle cx="684.5" cy="40" r="20.0000319580379" stroke="black" stroke-linecap="round" stroke-linejoin="round" stroke-width="2"/>
        <text transform="translate(680.6069 31.770996)" fill="black">
          <tspan font-family="Arial" font-size="14" fill="black" x="0" y="13">8</tspan>
        </text>
      </g>
      <g id="Graphic_26"/>
      <g id="Line_25">
        <line x1="20" y1="180" x2="767.1" y2="180" marker-end="url(#FilledArrow_Marker)" stroke="black" stroke-linecap="round" stroke-linejoin="round" stroke-width="2"/>
      </g>
      <g id="Line_24">
        <line x1="726.5" y1="165" x2="726.5" y2="195" stroke="black" stroke-linecap="round" stroke-linejoin="round" stroke-width="2"/>
      </g>
      <g id="Graphic_34"/>
      <g id="Line_33">
        <line x1="22" y1="-40" x2="769.1" y2="-40" marker-end="url(#FilledArrow_Marker)" stroke="black" stroke-linecap="round" stroke-linejoin="round" stroke-width="2"/>
      </g>
      <g id="Line_32">
        <line x1="493.5" y1="-55" x2="493.5" y2="-25" stroke="black" stroke-linecap="round" stroke-linejoin="round" stroke-width="2"/>
      </g>
      <g id="Graphic_31">
        <circle cx="82.5" cy="-40" r="20.0000319580379" fill="#80ff80"/>
        <circle cx="82.5" cy="-40" r="20.0000319580379" stroke="black" stroke-linecap="round" stroke-linejoin="round" stroke-width="2"/>
        <text transform="translate(78.60693 -48.229004)" fill="black">
          <tspan font-family="Arial" font-size="14" fill="black" x="0" y="13">1</tspan>
        </text>
      </g>
      <g id="Graphic_29">
        <circle cx="453.5" cy="-40" r="20.0000319580379" fill="#80ff80"/>
        <circle cx="453.5" cy="-40" r="20.0000319580379" stroke="black" stroke-linecap="round" stroke-linejoin="round" stroke-width="2"/>
        <text transform="translate(449.60693 -48.229004)" fill="black">
          <tspan font-family="Arial" font-size="14" fill="black" x="0" y="13">3</tspan>
        </text>
      </g>
      <g id="Graphic_28">
        <circle cx="309" cy="-40" r="20.0000319580379" fill="#80ff80"/>
        <circle cx="309" cy="-40" r="20.0000319580379" stroke="black" stroke-linecap="round" stroke-linejoin="round" stroke-width="2"/>
        <text transform="translate(305.10693 -48.229004)" fill="black">
          <tspan font-family="Arial" font-size="14" fill="black" x="0" y="13">5</tspan>
        </text>
      </g>
      <g id="Graphic_39">
        <circle cx="684.5" cy="180" r="20.0000319580379" fill="#ff80ff"/>
        <circle cx="684.5" cy="180" r="20.0000319580379" stroke="black" stroke-linecap="round" stroke-linejoin="round" stroke-width="2"/>
        <text transform="translate(680.6069 171.771)" fill="black">
          <tspan font-family="Arial" font-size="14" fill="black" x="0" y="13">8</tspan>
        </text>
      </g>
      <g id="Graphic_38">
        <circle cx="82.5" cy="180" r="20.0000319580379" fill="#80ff80"/>
        <circle cx="82.5" cy="180" r="20.0000319580379" stroke="black" stroke-linecap="round" stroke-linejoin="round" stroke-width="2"/>
        <text transform="translate(78.60693 171.771)" fill="black">
          <tspan font-family="Arial" font-size="14" fill="black" x="0" y="13">1</tspan>
        </text>
      </g>
      <g id="Graphic_37">
        <circle cx="453.5" cy="180" r="20.0000319580379" fill="#80ff80"/>
        <circle cx="453.5" cy="180" r="20.0000319580379" stroke="black" stroke-linecap="round" stroke-linejoin="round" stroke-width="2"/>
        <text transform="translate(449.60693 171.771)" fill="black">
          <tspan font-family="Arial" font-size="14" fill="black" x="0" y="13">3</tspan>
        </text>
      </g>
      <g id="Graphic_36">
        <circle cx="309" cy="180" r="20.0000319580379" fill="#80ff80"/>
        <circle cx="309" cy="180" r="20.0000319580379" stroke="black" stroke-linecap="round" stroke-linejoin="round" stroke-width="2"/>
        <text transform="translate(305.10693 171.771)" fill="black">
          <tspan font-family="Arial" font-size="14" fill="black" x="0" y="13">5</tspan>
        </text>
      </g>
      <g id="Graphic_42">
        <circle cx="527.5" cy="180" r="20.000031958038" fill="#ff80ff"/>
        <circle cx="527.5" cy="180" r="20.000031958038" stroke="black" stroke-linecap="round" stroke-linejoin="round" stroke-width="2"/>
        <text transform="translate(523.60693 171.771)" fill="black">
          <tspan font-family="Arial" font-size="14" fill="black" x="0" y="13">2</tspan>
        </text>
      </g>
      <g id="Graphic_43">
        <circle cx="587.5" cy="180" r="20.0000319580379" fill="#ff80ff"/>
        <circle cx="587.5" cy="180" r="20.0000319580379" stroke="black" stroke-linecap="round" stroke-linejoin="round" stroke-width="2"/>
        <text transform="translate(583.6069 171.771)" fill="black">
          <tspan font-family="Arial" font-size="14" fill="black" x="0" y="13">7</tspan>
        </text>
      </g>
    </g>
  </g>
</svg>
